<svg t="1717832264743" class="icon" viewBox="0 0 1024 1024" version="1.1" xmlns="http://www.w3.org/2000/svg" p-id="5167" width="200" height="200"><path d="M1001.110187 403.8656l-104.866134 104.9856c-8.8064 8.808107-20.41344 13.312-32.02048 13.312s-23.214933-4.404053-32.02048-13.312v416.339627c0 17.7152-14.308693 32.0256-32.02048 32.0256H512v1.00096H223.817387c-17.711787 0-32.02048-14.311253-32.02048-32.0256V509.853013c-8.8064 8.8064-20.41344 13.310293-32.02048 13.310294s-23.214933-4.4032-32.02048-13.310294l-104.866134-104.9856c-30.519467-30.52544-30.519467-79.865173 0-110.38976l194.722987-194.758826c14.209707-14.211413 33.521493-22.21824 53.7344-22.21824h91.158187c7.704747 0 15.10912 2.802347 21.013333 7.806293 19.712 17.1136 71.34464 56.24576 132.0832 56.24576 60.839253 0 112.571733-39.33184 132.183893-56.3456 5.804373-5.003947 13.108907-7.806293 20.713814-7.806293L752.352427 76.8h0.600746c20.113067 0 39.524693 8.006827 53.7344 22.31808l194.423467 194.458453c30.518613 30.424747 30.518613 79.865173 0 110.28992z" p-id="5168" fill="currentColor"></path></svg>