<svg fill="currentColor" t="1678011418363" class="icon" viewBox="0 0 1024 1024" version="1.1" xmlns="http://www.w3.org/2000/svg" p-id="3674" width="200" height="200"><path d="M511.163 32.070c-264.364 0-478.677 214.314-478.677 478.684 0 264.364 214.314 478.677 478.677 478.677 264.37 0 478.684-214.314 478.684-478.677 0-264.37-214.314-478.684-478.684-478.684zM748.823 748.407c-5.488 5.488-12.681 8.233-19.867 8.233-7.193 0-14.385-2.745-19.872-8.233l-226.013-226.019v-285.831c0-15.529 12.59-28.105 28.098-28.105 15.515 0 28.105 12.577 28.105 28.105v262.562l209.549 209.549c10.975 10.963 10.975 28.769 0 39.74z" p-id="3675"></path></svg>