<svg t="1717569551890" class="icon" viewBox="0 0 1024 1024" version="1.1" xmlns="http://www.w3.org/2000/svg" p-id="6046" width="200" height="200"><path d="M918 512l-21.4-37.2H802l41.2-71.6-21.4-37.2h-42.8l-62.6 108.6h-140.2l70-121.6h125.4l21.4-37.2-21.4-37.2h-82.6l47.4-82-21.4-37.2h-42.8l-47.4 82-41.2-71.6h-42.8l-21.4 37.2 62.6 108.6-70 121.6-70-121.6 62.6-108.6-21.4-37.2h-42.8L399.2 242l-47.4-82h-42.8l-21.4 37.2 47.4 82h-82.6l-21.4 37.2 21.4 37.2h125.4l70 121.6h-140.2l-62.6-108.6h-42.8l-21.4 37.2 41.2 71.6H127.4L106 512l21.4 37.2H222l-41.2 71.6 21.4 37.2h42.8l62.6-108.6h140.2l-70 121.6h-125.4l-21.4 37.2 21.4 37.2h82.6l-47.4 82 21.4 37.2h42.8l47.4-82 41.2 71.6h42.8l21.4-37.2-62.6-109.2 70-121.6 70 121.6-62.6 108.6 21.4 37.2h42.8l41.2-71.6 47.4 82h42.8l21.4-37.2-47.4-82h82.6l21.4-37.2-21.4-37.2h-125.4l-70-121.6h140.2l62.6 108.6h42.8l21.4-37.2-41.2-71h94.6L918 512z" fill="currentColor" p-id="6047"></path><path d="M582 707.8l-62.6 108.6 21.4 37.2h42.8l41.2-71.6 47.4 82h42.8l21.4-37.2-47.4-82h82.6l21.4-37.2-21.4-37.2h-125.4l-70-121.6h140.2l62.6 108.6h42.8l21.4-37.2-41.2-71h94.6L918 512l-21.4-37.2H802l41.2-71.6-21.4-37.2h-42.8l-62.6 108.6h-140.2l70-121.6h125.4l21.4-37.2-21.4-37.2h-82.6l47.4-82-21.4-37.2h-42.8l-47.4 82-41.2-71.6h-42.8l-21.4 37.2 62.6 108.6-70 121.6v149z" fill="currentColor" p-id="6048"></path></svg>