<svg t="1677766787247" class="icon" viewBox="0 0 1024 1024" version="1.1" xmlns="http://www.w3.org/2000/svg" p-id="2091" width="200" height="200"><path d="M394.496 506.2144m-307.2 0a307.2 307.2 0 1 0 614.4 0 307.2 307.2 0 1 0-614.4 0Z" fill="#9FDFFF" p-id="2092"></path><path d="M747.52 710.6048m-271.36 0a271.36 271.36 0 1 0 542.72 0 271.36 271.36 0 1 0-542.72 0Z" fill="#78CCFF" p-id="2093"></path><path d="M250.88 736.2048m-245.76 0a245.76 245.76 0 1 0 491.52 0 245.76 245.76 0 1 0-491.52 0Z" fill="#78CCFF" p-id="2094"></path><path d="M248.32 736.2048h496.64v245.76h-496.64z" fill="#78CCFF" p-id="2095"></path></svg>