<svg t="1677766438220" class="icon" viewBox="0 0 1024 1024" version="1.1" xmlns="http://www.w3.org/2000/svg" p-id="16653" width="200" height="200"><path d="M672.8704 283.5456c-27.648-75.9808-23.0912-155.8016 6.656-224.5632-17.3568 3.0208-34.7136 7.6288-51.9168 13.8752C469.9136 130.2528 388.608 304.64 446.0032 462.336s231.7824 239.0016 389.4784 181.6064c81.7152-29.7472 142.9504-90.9312 174.9504-164.9152-142.336 24.9344-286.4128-54.9376-337.5616-195.4816z" fill="#FFB612" p-id="16654"></path><path d="M402.432 558.4384m-286.5152 0a286.5152 286.5152 0 1 0 573.0304 0 286.5152 286.5152 0 1 0-573.0304 0Z" fill="#9FDFFF" p-id="16655"></path><path d="M731.648 749.1072m-253.0816 0a253.0816 253.0816 0 1 0 506.1632 0 253.0816 253.0816 0 1 0-506.1632 0Z" fill="#78CCFF" p-id="16656"></path><path d="M268.4416 772.9664m-229.2224 0a229.2224 229.2224 0 1 0 458.4448 0 229.2224 229.2224 0 1 0-458.4448 0Z" fill="#78CCFF" p-id="16657"></path><path d="M266.0864 772.9664h463.2064v229.2224H266.0864zM877.1584 460.4928H405.7088c-20.4288 0-37.12-16.6912-37.12-37.12s16.6912-37.12 37.12-37.12h471.4496c20.4288 0 37.12 16.6912 37.12 37.12s-16.6912 37.12-37.12 37.12z" fill="#78CCFF" p-id="16658"></path><path d="M877.1584 231.8336h-342.3744c-20.4288 0-37.12-16.6912-37.12-37.12s16.6912-37.12 37.12-37.12h342.3744c20.4288 0 37.12 16.6912 37.12 37.12s-16.6912 37.12-37.12 37.12z" fill="#9FDFFF" p-id="16659"></path><path d="M880.9984 346.1632h-228.7616c-20.4288 0-37.12-16.6912-37.12-37.12s16.6912-37.12 37.12-37.12h228.7616c20.4288 0 37.12 16.6912 37.12 37.12-0.0512 20.4288-16.7424 37.12-37.12 37.12z" fill="#78CCFF" p-id="16660"></path></svg>