<svg xmlns="http://www.w3.org/2000/svg" xmlns:xlink="http://www.w3.org/1999/xlink"><defs><symbol fill="currentColor" class="icon" viewBox="0 0 1024 1024" id="add"><path d="M925.696 384q19.456 0 37.376 7.68t30.72 20.48 20.48 30.72 7.68 37.376q0 20.48-7.68 37.888t-20.48 30.208-30.72 20.48-37.376 7.68H637.952v287.744q0 20.48-7.68 37.888t-20.48 30.208-30.72 20.48-37.376 7.68q-20.48 0-37.888-7.68t-30.208-20.48-20.48-30.208-7.68-37.888V576.512H157.696q-20.48 0-37.888-7.68T89.6 548.352t-20.48-30.208-7.68-37.888q0-19.456 7.68-37.376t20.48-30.72 30.208-20.48 37.888-7.68H445.44V96.256q0-19.456 7.68-37.376t20.48-30.72 30.208-20.48T541.696 0q39.936 0 68.096 28.16t28.16 68.096V384h287.744z" /></symbol><symbol viewBox="0 0 1024 1024" id="arrow-down"><path fill="currentColor" d="M831.872 340.864L512 652.672 192.128 340.864a30.592 30.592 0 00-42.752 0 29.12 29.12 0 000 41.6L489.664 714.24a32 32 0 0044.672 0l340.288-331.712a29.12 29.12 0 000-41.728 30.592 30.592 0 00-42.752 0z" /></symbol><symbol viewBox="0 0 1024 1024" id="circle-check-filled"><path fill="currentColor" d="M512 64a448 448 0 110 896 448 448 0 010-896zm-55.808 536.384l-99.52-99.584a38.4 38.4 0 10-54.336 54.336l126.72 126.72a38.272 38.272 0 0054.336 0l262.4-262.464a38.4 38.4 0 10-54.272-54.336L456.192 600.384z" /></symbol><symbol viewBox="0 0 1024 1024" id="circle-close-filled"><path fill="currentColor" d="M512 64a448 448 0 110 896 448 448 0 010-896zm0 393.664L407.936 353.6a38.4 38.4 0 10-54.336 54.336L457.664 512 353.6 616.064a38.4 38.4 0 1054.336 54.336L512 566.336 616.064 670.4a38.4 38.4 0 1054.336-54.336L566.336 512 670.4 407.936a38.4 38.4 0 10-54.336-54.336L512 457.664z" /></symbol><symbol class="icon" viewBox="0 0 1024 1024" id="class"><defs><style></style></defs><path d="M139.033 846.938a26.777 26.777 0 01-20.8-9.84 510.394 510.394 0 01-42.548-59.69 27.03 27.03 0 1146.16-28.137 448.212 448.212 0 0038.045 53.405 27.177 27.177 0 01-3.543 38.09 28.08 28.08 0 01-17.36 6.172zm0 0" /><path d="M511.885 1023.999a507.64 507.64 0 01-294.762-93.542 27.01 27.01 0 0131.131-44.148 454.452 454.452 0 00263.688 83.599c252.26 0 457.56-205.506 457.56-458.017S764.145 53.874 511.885 53.874 54.44 259.505 54.44 512.005a456.68 456.68 0 0018.389 128.776 27.028 27.028 0 01-51.862 15.21A513.388 513.388 0 01.509 511.995C.509 229.643 229.923 0 511.999 0s511.48 229.643 511.48 511.994-229.517 511.993-511.594 511.993zm0 0" /><path d="M551.565 764.082a22.388 22.388 0 010 44.765H306.413A111.839 111.839 0 01193.73 696.894V327.527a112.479 112.479 0 01112.684-112.364h410.738c62.857 0 113.142 50.365 113.142 112.364v184.695a22.365 22.365 0 11-44.731 0V327.527a67.428 67.428 0 00-67.6-67.587H306.414a67.428 67.428 0 00-67.53 67.587v368.956a67.428 67.428 0 0067.53 67.599zm0 0" /><path d="M677.243 677.9c-49.028 0-88.593-37.885-88.593-84.81-.434-46.502 39.565-84.388 88.593-84.388s88.605 37.886 88.605 84.81c0 46.503-40 84.388-88.605 84.388zm0-126.147c-25.37 0-45.588 18.514-45.588 41.76s20.651 41.76 45.588 41.76 45.6-18.515 45.6-41.76-20.652-41.76-45.6-41.76zm0 0" /><path d="M807.573 808.344a21.314 21.314 0 01-21.508-21.53c0-55.532-48.171-100.742-107.096-100.742s-107.096 45.21-107.096 100.741a21.508 21.508 0 11-43.005 0c0-79.21 67.519-143.792 150.1-143.792S829.07 707.603 829.07 786.813a21.303 21.303 0 01-21.497 21.531zm-168.33-478.977a21.314 21.314 0 01-21.508-21.53v-68.023a21.508 21.508 0 1143.017 0v68.022a21.314 21.314 0 01-21.508 21.531zm-258.91 0a21.314 21.314 0 01-21.509-21.53v-68.023a21.508 21.508 0 1143.005 0v68.022a21.577 21.577 0 01-21.496 21.531zm-184.455 67.908v-44.777h632.666v44.777zm227.094 78.353v109.348q4.503 70.399-63.222 93.004c-6.857 1.714-11.623-.434-15.063-6.468-1.291-6.023 1.726-9.897 8.606-12.046 34.834-9.04 52.045-33.588 51.176-74.056V475.628c0-4.731 3.018-7.748 9.463-8.182 5.166.434 8.171 3.017 9.04 8.182zm-120.433-4.731h56.777c4.297.423 6.857 3.429 7.314 9.04-.434 5.6-3.017 8.183-7.314 8.183h-21.509v62.856h16.732c4.297.423 6.857 3.429 7.314 9.028-.434 5.6-3.017 8.183-7.314 8.183h-16.732v62c1.292-1.292 4.309-3.429 9.463-6.458a23.737 23.737 0 007.314-4.73c4.297-3.43 8.594-3.43 12.903.856 3.006 4.732 2.583 9.04-1.726 12.914-16.342 12.914-37.84 22.857-65.37 30.137-6.023.434-10.286-1.726-12.046-7.314-.423-4.309 2.149-7.749 8.606-9.909 11.177-2.582 18.49-4.73 22.365-7.314v-69.713h-15.062c-5.589 0-8.606-2.583-8.606-8.183s3.017-8.606 8.606-9.04h15.05V488.12H302.54c-5.588 0-8.594-2.583-8.594-8.183.423-5.6 3.006-8.617 8.594-9.04zm137.199 1.714h63.233c4.297.435 6.857 3.429 7.303 9.04-.423 5.6-3.006 8.183-7.303 8.183H477.59v70.17h18.49c5.166.435 7.75 3.429 8.606 9.052-.423 6.023-3.428 9.04-8.605 9.04h-18.491v76.627h27.953c5.166 0 7.749 3.017 8.606 9.04-.434 6.034-3.428 9.474-8.606 9.909h-77.861c-5.6-.435-8.606-3.875-8.606-9.909s3.006-9.04 8.606-9.04h31.816V578.52H438.88c-5.588 0-8.605-3.006-8.605-9.04 0-5.589 3.017-8.606 8.605-9.04h20.64v-70.605h-19.782c-6.023 0-9.463-2.583-10.286-8.183q.651-7.748 10.286-9.04zm-46.857 9.04c-.423 21.954-1.714 42.628-3.006 62a448.132 448.132 0 01-7.314 52.09c-2.583 6.034-6.457 9.052-12.045 8.183-5.589-1.291-7.315-5.166-5.589-12.057a382.647 382.647 0 006.457-47.36q2.572-24.525 3.863-61.987c0-4.743 3.017-7.749 8.606-8.183 5.588 0 8.605 2.583 9.028 7.314zm0 0" /><path d="M355.007 683.18c-6.445 0-11.177-3.017-14.183-9.474l-.434-1.291c-1.725-8.183 2.583-14.64 11.611-16.789 33.143-8.617 48.606-31.428 48.171-69.713V475.628c0-3.428 1.292-11.188 13.337-12.49h.857c7.737.868 12.046 5.176 13.337 12.056 2.149-3.874 6.446-6.023 12.035-6.857h64.513c3.863.423 9.886 3.006 11.177 12.914v.789c-1.291 10.765-8.606 12.057-11.611 12.057h-21.063v61.565h15.051c6.857.857 11.177 5.6 12.046 12.914v.857c-1.291 11.634-9.463 12.914-12.48 12.914h-14.194v68.034h23.657c3.428 0 11.611 1.29 12.48 12.914v.857c-1.292 10.765-8.172 13.348-12.046 13.782h-79.142c-7.737-.868-12.045-6.034-12.045-14.217 0-8.605 4.731-13.336 12.902-13.336h27.531v-67.554H438.88c-5.588 0-9.897-2.583-11.61-6.857v9.04c3.428 48.65-18.926 81.37-66.286 97.302a33.36 33.36 0 01-6.023.868zm-6.445-12.925c2.148 3.874 5.165 4.742 9.897 3.874 43.428-14.629 63.222-43.428 60.205-88.685V476.063c-.423-1.726-.858-3.429-5.155-4.309-5.165.434-5.165 2.583-5.165 3.874v110.65c.857 42.183-17.634 68.445-54.617 77.92-5.165 1.29-5.6 3.428-5.165 6.022zm79.141 0h77.84c1.29 0 3.874-.858 4.308-5.589-.434-4.743-2.583-4.743-3.874-4.743h-32.263V574.21h22.857c1.292 0 3.429 0 3.874-4.743-.434-3.428-2.148-4.731-4.308-4.731H473.29v-79.2h29.714c1.292 0 2.572 0 3.006-3.885-.434-3.874-2.149-4.731-3.429-4.731h-62.844c-4.298.434-5.589 2.148-6.023 4.731.434 2.16 1.291 3.886 6.023 3.886h24.09v78.787H438.88c-3.428.435-4.297 1.726-4.297 4.743 0 4.297 1.715 4.732 4.297 4.732h24.949v85.244H427.68c-2.583 0-4.309.435-4.309 4.732 0 5.165 1.726 6.034 4.309 6.457zm-.434-181.712v74.913c1.714-4.309 5.589-6.857 11.189-7.314h16.765v-62h-15.485c-6.023 0-10.286-1.725-12.469-5.6zM299.1 668.072c-6.857 0-12.045-3.429-14.628-10.286v-.891c-.857-4.309.868-10.766 11.188-14.64h.857a95.999 95.999 0 0018.926-5.6V572.93h-10.754c-7.737 0-12.903-4.743-12.903-12.491s4.309-12.48 12.046-13.349h11.177v-54.673h-12.469c-7.737 0-12.902-4.732-12.902-12.48s4.308-12.491 12.045-13.348h58.068c3.863.434 9.886 3.017 11.177 12.914v.434c.857-5.6 5.154-9.04 12.046-9.909h.422c7.749 0 12.903 3.875 13.772 11.2v.812c-.435 21.954-1.726 42.628-3.017 62.422-1.715 20.24-4.298 37.885-7.738 52.57l-.434.87c-3.005 7.748-9.028 11.622-16.777 10.753h-.423a12.354 12.354 0 01-8.17-5.165c-1.727-3.006-2.15-6.857-.858-12.046 1.714-7.748 3.006-15.931 4.297-24.971a11.028 11.028 0 01-10.286 6.457h-12.514v49.508c.869-.434 1.726-1.291 2.583-1.726 4.732-2.583 6.446-3.428 6.857-3.874 6.457-5.166 13.337-4.731 18.926.857l.434.869c4.297 6.457 3.429 13.348-2.583 18.514q-25.142 20.022-67.096 30.994zm-6.445-12.914c.857 2.148 2.571 4.308 7.302 3.874 26.674-7.314 47.748-16.789 63.223-29.28 2.582-2.148 3.017-3.874 1.302-6.457-3.017-2.583-4.731-2.148-6.857-.434-1.291 1.303-4.297 3.017-8.171 5.166a81.416 81.416 0 00-8.171 5.6l-7.315 7.325v-76.628h21.063c1.291 0 2.583 0 3.017-3.874-.434-3.874-2.148-4.731-3.428-4.731h-20.652V483.81h25.806c1.28 0 2.571 0 3.006-3.874-.435-3.874-2.149-4.743-3.429-4.743h-56.342c-3.429.434-4.297 1.726-4.297 4.743 0 2.583.423 3.874 4.297 3.874h21.074v71.462h-18.96c-3.428.434-4.297 1.726-4.297 4.731 0 2.595.423 3.886 4.297 3.886h19.348v77.485l-2.148 1.303c-4.297 2.583-12.034 5.165-23.646 7.748-5.6 1.714-6.022 3.874-6.022 4.732zm78.707-55.108c2.572.434 5.154-.435 7.303-5.166a426.783 426.783 0 007.314-51.234c1.292-19.37 2.149-40 2.583-61.565-.434-1.714-.857-3.017-4.731-3.428-4.297.423-4.297 2.583-4.297 3.874-.435 24.971-1.726 46.068-3.875 62.422a388.12 388.12 0 01-6.457 47.794 8.731 8.731 0 00-.423 5.588c.423.869 1.292 1.292 2.583 1.726zm-28.822-52.96h12.902c3.429.435 9.04 2.583 10.755 10.343l1.291-12.925q2.571-24.526 3.874-61.988v-1.292c-1.725 9.897-8.605 10.754-11.611 10.754h-17.211zm0 0" /></symbol><symbol viewBox="0 0 1024 1024" id="close"><path fill="currentColor" d="M764.288 214.592L512 466.88 259.712 214.592a31.936 31.936 0 00-45.12 45.12L466.752 512 214.528 764.224a31.936 31.936 0 1045.12 45.184L512 557.184l252.288 252.288a31.936 31.936 0 0045.12-45.12L557.12 512.064l252.288-252.352a31.936 31.936 0 10-45.12-45.184z" /></symbol><symbol class="icon" viewBox="0 0 1024 1024" id="course"><defs><style></style></defs><path d="M896 234.7c11.8 0 21.3-9.6 21.3-21.3V106.7c0-23.6-19.1-42.7-42.7-42.7H149.3c-23.6 0-42.7 19.1-42.7 42.7v746.7c0 58.7 48 106.7 106.7 106.7H896c11.8 0 21.3-9.6 21.3-21.3V384c0-11.8-9.6-21.3-21.3-21.3s-21.3 9.6-21.3 21.3v362.7H213.3c-24.1 0-46.1 8.4-64 22V128c0-11.8 9.6-21.3 21.3-21.3h682.7c11.8 0 21.3 9.6 21.3 21.3v85.3c.1 11.8 9.6 21.4 21.4 21.4zM213.3 789.3h661.3v128H213.3c-35.3 0-64-28.7-64-64s28.7-64 64-64zm512-512c0-11.8-9.6-21.3-21.3-21.3H320c-11.8 0-21.3 9.6-21.3 21.3 0 11.8 9.6 21.3 21.3 21.3h384c11.8.1 21.3-9.5 21.3-21.3zM320 405.3c-11.8 0-21.3 9.6-21.3 21.3 0 11.8 9.6 21.3 21.3 21.3h213.3c11.8 0 21.3-9.6 21.3-21.3 0-11.8-9.6-21.3-21.3-21.3H320z" /></symbol><symbol viewBox="0 0 1024 1024" id="delete"><path fill="currentColor" d="M160 256H96a32 32 0 010-64h256V95.936a32 32 0 0132-32h256a32 32 0 0132 32V192h256a32 32 0 110 64h-64v672a32 32 0 01-32 32H192a32 32 0 01-32-32V256zm448-64v-64H416v64h192zM224 896h576V256H224v640zm192-128a32 32 0 01-32-32V416a32 32 0 0164 0v320a32 32 0 01-32 32zm192 0a32 32 0 01-32-32V416a32 32 0 0164 0v320a32 32 0 01-32 32z" /></symbol><symbol viewBox="0 0 1024 1024" id="document"><path fill="currentColor" d="M832 384H576V128H192v768h640V384zm-26.496-64L640 154.496V320h165.504zM160 64h480l256 256v608a32 32 0 01-32 32H160a32 32 0 01-32-32V96a32 32 0 0132-32zm160 448h384v64H320v-64zm0-192h160v64H320v-64zm0 384h384v64H320v-64z" /></symbol><symbol viewBox="0 0 1024 1024" id="edit"><path fill="currentColor" d="M832 512a32 32 0 1164 0v352a32 32 0 01-32 32H160a32 32 0 01-32-32V160a32 32 0 0132-32h352a32 32 0 010 64H192v640h640V512z" /><path fill="currentColor" d="M469.952 554.24l52.8-7.552L847.104 222.4a32 32 0 10-45.248-45.248L477.44 501.44l-7.552 52.8zm422.4-422.4a96 96 0 010 135.808l-331.84 331.84a32 32 0 01-18.112 9.088L436.8 623.68a32 32 0 01-36.224-36.224l15.104-105.6a32 32 0 019.024-18.112l331.904-331.84a96 96 0 01135.744 0z" /></symbol><symbol viewBox="0 0 1024 1024" id="edit-pen"><path d="M199.04 672.64l193.984 112 224-387.968-193.92-112-224 388.032zm-23.872 60.16l32.896 148.288 144.896-45.696L175.168 732.8zM455.04 229.248l193.92 112 56.704-98.112-193.984-112-56.64 98.112zM104.32 708.8l384-665.024 304.768 175.936L409.152 884.8h.064l-248.448 78.336L104.32 708.8zm384 254.272v-64h448v64h-448z" fill="currentColor" /></symbol><symbol viewBox="0 0 1024 1024" id="help"><path fill="currentColor" d="M759.936 805.248l-90.944-91.008A254.912 254.912 0 01512 768a254.912 254.912 0 01-156.992-53.76l-90.944 91.008A382.464 382.464 0 00512 896c94.528 0 181.12-34.176 247.936-90.752zm45.312-45.312A382.464 382.464 0 00896 512c0-94.528-34.176-181.12-90.752-247.936l-91.008 90.944C747.904 398.4 768 452.864 768 512c0 59.136-20.096 113.6-53.76 156.992l91.008 90.944zm-45.312-541.184A382.464 382.464 0 00512 128c-94.528 0-181.12 34.176-247.936 90.752l90.944 91.008A254.912 254.912 0 01512 256c59.136 0 113.6 20.096 156.992 53.76l90.944-91.008zm-541.184 45.312A382.464 382.464 0 00128 512c0 94.528 34.176 181.12 90.752 247.936l91.008-90.944A254.912 254.912 0 01256 512c0-59.136 20.096-113.6 53.76-156.992l-91.008-90.944zm417.28 394.496a194.56 194.56 0 0022.528-22.528C686.912 602.56 704 559.232 704 512a191.232 191.232 0 00-67.968-146.56A191.296 191.296 0 00512 320a191.232 191.232 0 00-146.56 67.968C337.088 421.44 320 464.768 320 512a191.232 191.232 0 0067.968 146.56C421.44 686.912 464.768 704 512 704c47.296 0 90.56-17.088 124.032-45.44zM512 960a448 448 0 110-896 448 448 0 010 896z" /></symbol><symbol viewBox="0 0 1024 1024" id="hide"><path d="M876.8 156.8c0-9.6-3.2-16-9.6-22.4-6.4-6.4-12.8-9.6-22.4-9.6-9.6 0-16 3.2-22.4 9.6L736 220.8c-64-32-137.6-51.2-224-60.8-160 16-288 73.6-377.6 176C44.8 438.4 0 496 0 512s48 73.6 134.4 176c22.4 25.6 44.8 48 73.6 67.2l-86.4 89.6c-6.4 6.4-9.6 12.8-9.6 22.4 0 9.6 3.2 16 9.6 22.4 6.4 6.4 12.8 9.6 22.4 9.6 9.6 0 16-3.2 22.4-9.6l704-710.4c3.2-6.4 6.4-12.8 6.4-22.4zm-646.4 528c-76.8-70.4-128-128-153.6-172.8 28.8-48 80-105.6 153.6-172.8C304 272 400 230.4 512 224c64 3.2 124.8 19.2 176 44.8l-54.4 54.4C598.4 300.8 560 288 512 288c-64 0-115.2 22.4-160 64s-64 96-64 160c0 48 12.8 89.6 35.2 124.8L256 707.2c-9.6-6.4-19.2-16-25.6-22.4zm140.8-96c-12.8-22.4-19.2-48-19.2-76.8 0-44.8 16-83.2 48-112 32-28.8 67.2-48 112-48 28.8 0 54.4 6.4 73.6 19.2L371.2 588.8zM889.599 336c-12.8-16-28.8-28.8-41.6-41.6l-48 48c73.6 67.2 124.8 124.8 150.4 169.6-28.8 48-80 105.6-153.6 172.8-73.6 67.2-172.8 108.8-284.8 115.2-51.2-3.2-99.2-12.8-140.8-28.8l-48 48c57.6 22.4 118.4 38.4 188.8 44.8 160-16 288-73.6 377.6-176C979.199 585.6 1024 528 1024 512s-48.001-73.6-134.401-176z" fill="currentColor" /><path d="M511.998 672c-12.8 0-25.6-3.2-38.4-6.4l-51.2 51.2c28.8 12.8 57.6 19.2 89.6 19.2 64 0 115.2-22.4 160-64 41.6-41.6 64-96 64-160 0-32-6.4-64-19.2-89.6l-51.2 51.2c3.2 12.8 6.4 25.6 6.4 38.4 0 44.8-16 83.2-48 112-32 28.8-67.2 48-112 48z" fill="currentColor" /></symbol><symbol class="icon" viewBox="0 0 1024 1024" id="home"><defs><style></style></defs><path d="M422.63 891.821V623.712h178.74v268.109h223.424V534.342h134.054L512 132.179 65.152 534.342h134.054V891.82H422.63z" /></symbol><symbol viewBox="0 0 1024 1024" id="iphone"><path fill="currentColor" d="M224 768v96.064a64 64 0 0064 64h448a64 64 0 0064-64V768H224zm0-64h576V160a64 64 0 00-64-64H288a64 64 0 00-64 64v544zm32 288a96 96 0 01-96-96V128a96 96 0 0196-96h512a96 96 0 0196 96v768a96 96 0 01-96 96H256zm304-144a48 48 0 11-96 0 48 48 0 0196 0z" /></symbol><symbol viewBox="0 0 1024 1024" id="lock"><path fill="currentColor" d="M224 448a32 32 0 00-32 32v384a32 32 0 0032 32h576a32 32 0 0032-32V480a32 32 0 00-32-32H224zm0-64h576a96 96 0 0196 96v384a96 96 0 01-96 96H224a96 96 0 01-96-96V480a96 96 0 0196-96z" /><path fill="currentColor" d="M512 544a32 32 0 0132 32v192a32 32 0 11-64 0V576a32 32 0 0132-32zm192-160v-64a192 192 0 10-384 0v64h384zM512 64a256 256 0 01256 256v128H256V320A256 256 0 01512 64z" /></symbol><symbol class="icon" viewBox="0 0 1024 1024" id="menu"><defs><style></style></defs><path d="M492.753 492.468h-182.14c-100.409 0-182.139-81.73-182.139-182.14s81.73-182.138 182.14-182.138 182.139 81.73 182.139 182.139v182.14zm-182.14-321.707c-76.894 0-139.472 62.578-139.472 139.473s62.578 139.473 139.472 139.473h139.473V310.234c0-76.895-62.578-139.473-139.473-139.473zM714.24 492.468H532.1V310.234c0-100.409 81.731-182.14 182.14-182.14s182.14 81.731 182.14 182.14-81.636 182.234-182.14 182.234zm-139.473-42.667H714.24c76.895 0 139.473-62.577 139.473-139.472S791.135 170.856 714.24 170.856 574.767 233.434 574.767 310.33V449.8zM310.613 896.095c-100.409 0-182.139-81.73-182.139-182.14s81.73-182.139 182.14-182.139h182.139v182.14c0 100.408-81.73 182.139-182.14 182.139zm0-321.612c-76.894 0-139.472 62.578-139.472 139.473s62.578 139.472 139.472 139.472 139.473-62.578 139.473-139.472V574.483H310.613zM714.24 896.095c-100.409 0-182.14-81.73-182.14-182.14V531.817h182.14c100.409 0 182.14 81.73 182.14 182.14s-81.636 182.139-182.14 182.139zM574.767 574.483v139.473c0 76.894 62.578 139.472 139.473 139.472s139.473-62.578 139.473-139.472-62.578-139.473-139.473-139.473H574.767z" /></symbol><symbol class="icon" viewBox="0 0 1024 1024" id="menu-l"><defs><style></style></defs><path d="M917.333 789.12a21.333 21.333 0 0121.334 21.333v42.667a21.333 21.333 0 01-21.334 21.333H106.667a21.333 21.333 0 01-21.334-21.333v-42.667a21.333 21.333 0 0121.334-21.333h810.666zM255.701 380.16l.299 3.627v256a21.333 21.333 0 01-33.621 17.493l-2.816-2.39-128-128a21.333 21.333 0 01-2.432-27.22l2.432-2.987 128-128a21.333 21.333 0 0136.138 11.434zm661.632 195.627a21.333 21.333 0 0121.334 21.333v42.667a21.333 21.333 0 01-21.334 21.333h-512A21.333 21.333 0 01384 639.787V597.12a21.333 21.333 0 0121.333-21.333h512zm0-213.334a21.333 21.333 0 0121.334 21.334v42.666a21.333 21.333 0 01-21.334 21.334h-512A21.333 21.333 0 01384 426.453v-42.666a21.333 21.333 0 0121.333-21.334h512zm0-213.333a21.333 21.333 0 0121.334 21.333v42.667a21.333 21.333 0 01-21.334 21.333H106.667a21.333 21.333 0 01-21.334-21.333v-42.667a21.333 21.333 0 0121.334-21.333h810.666z" /></symbol><symbol class="icon" viewBox="0 0 1024 1024" id="menu-r"><defs><style></style></defs><path d="M106.667 789.12a21.333 21.333 0 00-21.334 21.333v42.667a21.333 21.333 0 0021.334 21.333h810.666a21.333 21.333 0 0021.334-21.333v-42.667a21.333 21.333 0 00-21.334-21.333H106.667zm661.632-408.96l-.299 3.627v256a21.333 21.333 0 0033.621 17.493l2.816-2.39 128-128a21.333 21.333 0 002.432-27.22l-2.432-2.987-128-128a21.333 21.333 0 00-36.138 11.434zM106.667 575.787a21.333 21.333 0 00-21.334 21.333v42.667a21.333 21.333 0 0021.334 21.333h512A21.333 21.333 0 00640 639.787V597.12a21.333 21.333 0 00-21.333-21.333h-512zm0-213.334a21.333 21.333 0 00-21.334 21.334v42.666a21.333 21.333 0 0021.334 21.334h512A21.333 21.333 0 00640 426.453v-42.666a21.333 21.333 0 00-21.333-21.334h-512zm0-213.333a21.333 21.333 0 00-21.334 21.333v42.667a21.333 21.333 0 0021.334 21.333h810.666a21.333 21.333 0 0021.334-21.333v-42.667a21.333 21.333 0 00-21.334-21.333H106.667z" /></symbol><symbol fill="currentColor" class="icon" viewBox="0 0 1024 1024" id="publish"><path d="M797.5 760.3L458.3 655.9l339.2-391.4-443.6 391.4L93 551.5l835-443.6-130.5 652.4zM458.3 916.9V734.2l104.4 52.2-104.4 130.5zm0 0" /></symbol><symbol class="icon" viewBox="0 0 1024 1024" id="record"><defs><style></style></defs><path d="M607.232 896a32 32 0 110 64H192a96 96 0 01-96-96V160a96 96 0 0196-96h544a96 96 0 0196 96 32 32 0 01-64 0 32 32 0 00-32-32H192a32 32 0 00-32 32v704a32 32 0 0032 32h415.232zM832 585.76v146.656c0 42.656-64 42.656-64 0V585.76c0-42.688 64-42.688 64 0z" /><path d="M288 320a32 32 0 110-64h224a32 32 0 010 64H288zm0 160a32 32 0 010-64h128a32 32 0 010 64H288zm351.424 446.592a32 32 0 11-64 0L576 800a96 96 0 0196-96l127.744 1.152a32 32 0 110 64L672 768a32 32 0 00-32 32l-.576 126.592z" /><path d="M637.92 947.648a32 32 0 11-44.32-46.208l180.384-172.992a32 32 0 1144.288 46.176L637.92 947.648zm242.976-613.12a31.424 31.424 0 003.328-44.416l-.416-.512a32 32 0 00-44.896-3.36L408.32 652.288l-15.2 51.84 58.336-4.544 429.44-365.056zm51.616-86.4a95.36 95.36 0 01-9.408 134.496l-438.08 372.448a32 32 0 01-18.24 7.52l-114.944 8.896a32 32 0 01-33.184-40.928L349.6 625.088a32 32 0 019.984-15.36l437.824-372.224a96 96 0 01134.688 10.112l.416.512z" /></symbol><symbol viewBox="0 0 1024 1024" id="refresh"><path fill="currentColor" d="M771.776 794.88A384 384 0 01128 512h64a320 320 0 00555.712 216.448H654.72a32 32 0 110-64h149.056a32 32 0 0132 32v148.928a32 32 0 11-64 0v-50.56zM276.288 295.616h92.992a32 32 0 010 64H220.16a32 32 0 01-32-32V178.56a32 32 0 0164 0v50.56A384 384 0 01896.128 512h-64a320 320 0 00-555.776-216.384z" /></symbol><symbol fill="currentColor" class="icon" viewBox="0 0 1024 1024" id="reply"><path d="M999.273 882.852c-8.948 0-17.288-5.227-21.111-13.674-8.644-18.795-43.52-67.034-90.268-112.267-35.532-34.381-128.937-116.966-444.555-116.966-52.266 0-57.567-.365-57.567-.365v168.879c0 9.35-5.626 17.897-14.372 21.514-8.649 3.617-27.749 1.61-34.38-5.027L6.858 502.051C2.534 497.728.02 491.797.02 485.661c0-6.13 2.415-12.06 6.837-16.385L337.02 134.72c6.631-6.637 23.723-8.649 32.366-5.026 8.645 3.617 14.378 12.06 14.378 21.509v168.813s38.073-.275 67.128-.275c95.8 0 234.832 18.042 352.655 86.502 66.545 38.706 118.822 90.677 155.313 154.314 42.322 73.784 63.738 194.419 63.738 299.072 0 10.955-7.644 20.404-18.398 22.718-1.61.402-3.317.504-4.927.504z" /></symbol><symbol class="icon" viewBox="0 0 1024 1024" id="role"><defs><style></style></defs><path d="M750.231 668.295c-55.296 0-100.286 45.005-100.286 100.3 0 55.307 44.99 100.311 100.286 100.311 55.311 0 100.301-45.004 100.301-100.31 0-55.296-44.99-100.3-100.3-100.3zm0 148.925c-26.81 0-48.614-21.814-48.614-48.624 0-26.8 21.804-48.615 48.614-48.615 26.815 0 48.63 21.815 48.63 48.615 0 26.81-21.815 48.624-48.63 48.624zm265.185-101.027c-3.764-19.862-16.509-32.7-32.873-32.7h-2.27c-31.306 0-56.79-25.47-56.79-56.77 0-8.22 3.595-18.319 4.96-21.484 7.75-17.457 1.786-38.882-15.44-50.81l-66.399-36.765c-5.202-2.246-10.826-3.393-16.716-3.393-12.027 0-23.911 4.9-31.785 13.061-8.274 8.526-30.242 26.122-45.375 26.122-15.272 0-37.379-17.937-45.667-26.592-7.913-8.363-19.906-13.358-32.067-13.358-5.826 0-11.365 1.113-16.34 3.264l-1.242.51-67.57 37.111-1.608 1.039c-15.707 10.93-21.706 32.344-14.006 49.648.514 1.236 5.03 12.226 5.03 21.647 0 31.3-25.48 56.77-56.8 56.77h-2.646c-15.966 0-28.72 12.838-32.482 32.72-.574 3.056-5.603 30.518-5.603 52.72 0 22.21 5.03 49.667 5.603 52.753 3.76 19.857 16.505 32.695 32.878 32.695h2.245c31.32 0 56.805 25.475 56.805 56.77 0 8.22-3.596 18.319-4.96 21.489-7.74 17.433-1.796 38.837 15.37 50.805l65.148 36.3c5.193 2.256 10.816 3.423 16.72 3.423 12.246 0 24.259-5.124 32.107-13.684 8.022-8.71 30.806-27.785 46.37-27.785 15.727 0 38.254 19.115 46.676 28.353 7.903 8.71 19.995 13.902 32.339 13.902 5.806 0 11.335-1.112 18.056-4.09l65.87-36.394 1.577-1.044c15.688-10.904 21.672-32.299 13.981-49.623-.514-1.241-5.03-12.226-5.03-21.652 0-31.295 25.485-56.77 56.79-56.77h2.617c15.999 0 28.758-12.838 32.507-32.645.05-.277 5.618-29.446 5.618-52.804 0-22.2-5.025-49.663-5.598-52.74zm-49.36 87.432c-53.487 6.998-94.238 52.67-94.238 107.526 0 12.666 3.056 24.693 5.746 32.834l-47.531 26.275c-4.273-4.188-11.093-10.464-19.545-16.73-21.009-15.589-41.36-23.521-60.47-23.521-18.95 0-39.138 7.779-60.019 23.08a191.197 191.197 0 00-19.42 16.405l-45.435-25.42c2.695-8.155 5.776-20.257 5.776-32.923 0-54.856-40.742-100.528-94.233-107.526-1.37-8.852-3.288-23.284-3.288-34.693 0-11.459 1.909-25.85 3.288-34.678 53.482-7.003 94.233-52.685 94.233-107.531 0-12.631-3.056-24.654-5.742-32.8L674.238 567c4.258 4.006 11.088 10.035 19.48 16.01 20.599 14.682 40.46 22.135 59.01 22.135 18.369 0 38.062-7.31 58.522-21.72 8.323-5.846 15.064-11.692 19.356-15.678l46.978 26.103c-2.69 8.15-5.761 20.207-5.761 32.873 0 54.856 40.736 100.528 94.222 107.53 1.4 9.012 3.304 23.374 3.304 34.689-.001 11.39-1.9 25.707-3.294 34.683zM70.033 950.483v-56.8c0-193.123 148.93-352.285 338.673-370.222l-.082-.04s.191 0 .495.01c11.632-1.093 23.4-1.706 35.313-1.706 1.793 0 3.56.099 5.346.119 41.963-3.255 105.46-13.114 138.644-42.735l16.241-12.658c63.442-49.541 99.83-123.556 99.83-203.053 0-142.45-116.68-258.334-260.112-258.334S184.27 120.948 184.27 263.397c0 79.497 36.39 153.512 99.832 203.053l16.237 12.658-19.132 7.596C112.198 553.807 2.99 713.552 2.99 893.684v90.028c0 18.329 15.027 33.24 33.516 33.24h489.767c-15.944-20.42-29.535-42.696-40.52-66.469H70.033zm181.28-687.086c0-105.8 86.606-191.87 193.068-191.87 106.46 0 193.08 86.07 193.08 191.87 0 105.802-86.62 191.868-193.08 191.868-106.462-.001-193.069-86.066-193.069-191.868z" /></symbol><symbol fill="currentColor" class="icon" viewBox="0 0 1024 1024" id="search"><path d="M1004.8 1004.8c-25.6 25.6-64 25.6-89.6 0L716.8 806.4C544 934.4 307.2 928 147.2 780.8-32 614.4-44.8 320 128 140.8s460.8-185.6 640-6.4c160 160 172.8 409.6 38.4 582.4l198.4 198.4c25.6 25.6 25.6 64 0 89.6zM704 262.4c-128-179.2-390.4-179.2-518.4 0-83.2 108.8-83.2 268.8 0 377.6 128 179.2 390.4 179.2 518.4 0 83.2-115.2 83.2-268.8 0-377.6z" /></symbol><symbol class="icon" viewBox="0 0 1024 1024" id="set"><defs><style></style></defs><path d="M508.472 383.852c67.346 0 122.15 54.805 122.15 122.15s-54.804 122.15-122.15 122.15-122.15-54.805-122.15-122.15 54.805-122.15 122.15-122.15m0-54.289c-97.448 0-176.439 78.99-176.439 176.44s78.99 176.438 176.44 176.438 176.438-78.99 176.438-176.439-78.99-176.439-176.439-176.439m436.186 284.16c7.758-33.082 11.71-67.147 11.71-101.722 0-34.575-3.952-68.64-11.71-101.722-3.425-14.602-18.038-23.664-32.64-20.24-14.603 3.425-23.665 18.039-20.24 32.641 6.806 29.024 10.276 58.927 10.276 89.321s-3.47 60.297-10.276 89.32c-3.425 14.603 5.637 29.217 20.24 32.641 14.602 3.425 29.215-5.637 32.64-20.24zm-32.086 20.848c1.718 0 3.155.026 4.466.083 14.985.652 27.66-10.967 28.312-25.952.651-14.984-10.968-27.66-25.952-28.311a155.244 155.244 0 00-6.826-.134c-14.999 0-27.157 12.158-27.157 27.157 0 14.998 12.158 27.157 27.157 27.157zm-88.67 163.374c-11.086-17.03-17.072-36.87-17.072-57.632 0-58.4 47.342-105.742 105.742-105.742 14.998 0 27.157-12.159 27.157-27.157 0-14.999-12.159-27.158-27.157-27.158-88.397 0-160.057 71.66-160.057 160.057 0 31.37 9.088 61.489 25.87 87.265 8.183 12.57 25.006 16.126 37.576 7.942 12.57-8.183 16.125-25.006 7.942-37.575zm-183.785 139.66c67.576-20.297 129.146-56.495 179.854-105.271 10.809-10.398 11.143-27.59.745-38.4s-27.59-11.142-38.4-.744c-44.525 42.83-98.555 74.595-157.823 92.395-14.364 4.314-22.512 19.457-18.197 33.821 4.314 14.365 19.456 22.512 33.821 18.198zm-223.82-14.449c17.308-36.785 54.332-60.762 95.704-60.762 41.38 0 78.426 23.984 95.731 60.762 6.386 13.572 22.564 19.397 36.135 13.012 13.572-6.386 19.397-22.564 13.012-36.135C630.696 844.386 574.615 808.08 512 808.08c-62.61 0-118.666 36.302-144.85 91.953-6.386 13.57-.56 29.75 13.01 36.135 13.572 6.385 29.75.56 36.136-13.012zM205.25 833.495c50.49 48.178 111.615 83.952 178.655 104.107 14.364 4.318 29.508-3.825 33.826-18.189 4.319-14.363-3.825-29.508-18.188-33.826-58.81-17.68-112.458-49.078-156.796-91.387-10.851-10.354-28.041-9.952-38.396.9s-9.952 28.04.9 38.395zM113.276 634.57c58.4 0 105.742 47.342 105.742 105.742 0 21.123-6.193 41.291-17.634 58.497-8.304 12.49-4.912 29.347 7.577 37.652 12.49 8.304 29.347 4.912 37.652-7.577 17.32-26.047 26.72-56.662 26.72-88.572 0-88.397-71.66-160.056-160.057-160.056-14.998 0-27.157 12.159-27.157 27.157s12.159 27.157 27.157 27.157zm-5.974.15c1.83-.101 3.809-.15 5.974-.15 14.999 0 27.158-12.159 27.158-27.157 0-14.999-12.16-27.158-27.158-27.158-3.112 0-6.073.073-8.954.231-14.976.823-26.45 13.63-25.627 28.607.823 14.976 13.63 26.45 28.607 25.626zM79.37 410.202c-7.77 33.163-11.736 67.251-11.736 101.798S71.6 580.636 79.37 613.8c3.422 14.603 18.034 23.667 32.637 20.246 14.603-3.422 23.667-18.034 20.246-32.637-6.822-29.115-10.305-59.046-10.305-89.407 0-30.361 3.483-60.292 10.305-89.407 3.422-14.603-5.643-29.215-20.246-32.637-14.603-3.421-29.215 5.643-32.637 20.246zm33.906-20.772c-2.165 0-4.144-.049-5.974-.15-14.977-.822-27.784 10.651-28.607 25.627-.823 14.976 10.65 27.784 25.627 28.607 2.88.158 5.842.23 8.954.23 14.999 0 27.158-12.158 27.158-27.157 0-14.998-12.16-27.157-27.158-27.157zm88.108-164.239c11.443 17.208 17.634 37.377 17.634 58.524 0 58.393-47.335 105.715-105.742 105.715-14.998 0-27.157 12.159-27.157 27.157 0 14.999 12.159 27.158 27.157 27.158 88.401 0 160.057-71.636 160.057-160.03 0-31.933-9.398-62.548-26.72-88.598-8.305-12.49-25.162-15.882-37.652-7.577s-15.881 25.162-7.577 37.651zM383.905 86.4c-67.04 20.155-128.166 55.93-178.655 104.107-10.85 10.355-11.253 27.545-.899 38.396 10.355 10.851 27.545 11.254 38.396.9 44.338-42.31 97.986-73.708 156.796-91.388 14.363-4.318 22.507-19.463 18.188-33.826-4.318-14.364-19.462-22.507-33.826-18.189zm223.827 14.446c-17.303 36.775-54.348 60.762-95.704 60.762-41.396 0-78.421-23.974-95.73-60.762-6.386-13.572-22.565-19.397-36.136-13.011-13.571 6.385-19.397 22.564-13.01 36.135 26.186 55.654 82.244 91.952 144.877 91.952 62.59 0 118.67-36.31 144.85-91.952 6.385-13.572.56-29.75-13.011-36.135-13.572-6.386-29.75-.56-36.136 13.01zm212.233 90.817c-50.705-48.745-112.27-84.94-179.838-105.262-14.363-4.32-29.508 3.822-33.828 18.185s3.822 29.508 18.185 33.828c59.273 17.827 113.31 49.596 157.839 92.404 10.812 10.395 28.004 10.056 38.399-.757s10.055-28.004-.757-38.398zm92.607 197.768c-58.407 0-105.742-47.322-105.742-105.715 0-20.786 5.985-40.627 17.073-57.658 8.183-12.57 4.627-29.393-7.942-37.576-12.57-8.184-29.393-4.628-37.576 7.942-16.784 25.78-25.87 55.9-25.87 87.292 0 88.394 71.656 160.03 160.057 160.03 14.998 0 27.157-12.159 27.157-27.158 0-14.998-12.159-27.157-27.157-27.157zm4.466-.083c-1.31.057-2.748.083-4.466.083-14.999 0-27.157 12.159-27.157 27.158 0 14.998 12.158 27.157 27.157 27.157 2.451 0 4.652-.04 6.825-.134 14.985-.652 26.604-13.327 25.952-28.312-.651-14.984-13.326-26.603-28.31-25.952z" fill="#939393" /></symbol><symbol class="icon" viewBox="0 0 1024 1024" id="student"><defs><style></style></defs><path d="M204.096 118.592c10.496 10.24 14.848 23.744 13.12 40.704v700.032c-.576 16.896-5.824 30.336-15.744 40.256-9.92 9.92-23.36 15.168-40.256 15.744-14.592-.576-27.456-5.824-38.528-15.744s-16.896-23.36-17.472-40.256V159.296c.576-14.592 6.72-27.392 18.368-38.528 11.648-11.072 25.92-16.896 42.88-17.472 14.592 0 27.136 5.056 37.632 15.296zm685.568 17.472c21.312 21.312 32.256 47.68 32.832 79.168v593.28c-.576 31.488-11.52 57.856-32.832 79.168s-47.68 32.256-79.168 32.832H351.104c-16.896 0-30.336-5.12-40.256-15.296-9.92-10.24-15.168-23.744-15.744-40.704V159.296c.576-16.896 5.824-30.464 15.744-40.704 9.92-10.176 23.296-15.296 40.256-15.296h459.392c31.488.576 57.92 11.52 79.168 32.768zm-119.872 567.04c4.928-6.72 3.648-14.464-3.968-23.168-5.824-22.72-17.472-41.408-35.008-56-17.472-14.592-37.632-22.144-60.352-22.72h-11.392c-8.192 5.824-17.664 10.24-28.416 13.12-10.816 2.944-21.76 4.352-32.832 4.352s-21.44-1.472-31.04-4.352c-9.6-2.944-19.712-7.296-30.208-13.12h-11.392c-22.72.576-42.88 8.192-60.352 22.72-17.472 14.592-29.184 33.28-35.008 56-2.368 8.768-1.344 16.512 3.072 23.168 4.352 6.72 10.944 10.048 19.712 10.048h296.64c8.768 0 15.616-3.328 20.544-10.048zm-250.24-332.096c-21.888 20.992-33.088 47.552-33.664 79.616.576 34.432 11.84 63.296 33.664 86.656 21.888 23.36 49.728 35.328 83.584 35.904 34.432-.576 62.592-11.648 84.416-33.28 21.888-21.568 33.088-49.6 33.664-83.968-.576-34.432-11.84-62.4-33.664-83.968-21.888-21.568-50.048-32.64-84.416-33.28-33.856.512-61.696 11.328-83.584 32.32z" /></symbol><symbol class="icon" viewBox="0 0 1024 1024" id="student-m"><defs><style></style></defs><path d="M913.3 752.5l-88.9-160c-5.6-10.2-16.4-16.5-28-16.5H620.8c-11.6 0-22.3 6.3-28 16.5l-88.9 160c-5.4 9.7-5.4 21.4 0 31.1l88.9 160c5.6 10.2 16.4 16.5 28 16.5h175.7c11.6 0 22.3-6.3 28-16.5l88.9-160c5.3-9.7 5.3-21.5-.1-31.1zM793.9 917.3H623.3L537.9 768l85.3-149.3h170.7L879.3 768l-85.4 149.3z" /><path d="M708.6 682.7c-47.1 0-85.3 38.2-85.3 85.3 0 47.1 38.2 85.3 85.3 85.3s85.3-38.2 85.3-85.3c0-47.1-38.2-85.3-85.3-85.3zm0 128c-23.6 0-42.7-19.1-42.7-42.7s19.1-42.7 42.7-42.7 42.7 19.1 42.7 42.7-19.1 42.7-42.7 42.7zM512 533.3c138.4 0 248.8-119.8 233.2-261.4-11.9-107.3-99.1-194.6-206.5-206.4-141.6-15.6-261.4 94.8-261.4 233.2 0 90 50.7 168 125 207.4C231.9 553.9 106.7 710.2 106.7 896c0 15.5 1.1 30.7 2.9 45.7 1.3 10.5 10.5 18.3 21.1 18.3 12.5 0 22.6-10.8 21.1-23.3-1.6-13.4-2.5-26.9-2.5-40.7 0-200.3 162.4-362.7 362.7-362.7zM322.7 331.2c-21.6-131.4 90.4-243.4 221.8-221.8 79.6 13.1 143.8 77.2 156.8 156.8 21.6 131.4-90.4 243.4-221.8 221.9-79.6-13.2-143.8-77.3-156.8-156.9z" /></symbol><symbol class="icon" viewBox="0 0 1024 1024" id="timetable"><defs><style></style></defs><path d="M832 128H192c-38.4 0-64 32-64 76.8v614.4c0 44.8 25.6 76.8 64 76.8h640c38.4 0 64-32 64-76.8V204.8c0-44.8-25.6-76.8-64-76.8zM620.8 288v153.6h-224V288h224zm-224 377.6v-192h224v192h-224zm224 32v160h-224v-160h224zM160 288h204.8v153.6H160V288zm0 185.6h204.8v192H160v-192zm0 307.2v-83.2h204.8v160H224c-38.4 0-64-32-64-76.8zm704 0c0 44.8-25.6 76.8-64 76.8H652.8v-160H864v83.2zm0-115.2H652.8v-192H864v192zm0-224H652.8V288H864v153.6z" /></symbol><symbol viewBox="0 0 1024 1024" id="upload"><path fill="currentColor" d="M160 832h704a32 32 0 110 64H160a32 32 0 110-64zm384-578.304V704h-64V247.296L237.248 490.048 192 444.8 508.8 128l316.8 316.8-45.312 45.248L544 253.696z" /></symbol><symbol class="icon" viewBox="0 0 1024 1024" id="user"><defs><style></style></defs><path d="M513 956.3c-247.7 0-448-200.3-448-448S265.3 66.2 513 66.2s448 200.3 448 448-200.3 442.1-448 442.1zm0-830.9c-212.2 0-388.8 170.7-388.8 388.8C124.2 726.3 294.9 903 513 903c212.2 0 388.8-170.7 388.8-388.8S725.2 125.4 513 125.4zm0 430.2c-94.2 0-170.7-76.5-170.7-170.7S418.8 207.8 513 207.8s170.7 76.5 170.7 170.7S607.2 555.6 513 555.6zm0-289.1c-64.6 0-112 52.8-112 112s47.4 117.9 112 117.9 112-52.8 112-112-47.4-117.9-112-117.9zm0 689.8c-135.7 0-259-58.7-341.9-158.9l-11.8-17.8 11.8-17.8c76.5-117.9 206.2-188.5 347.8-188.5 135.7 0 265 64.6 341.9 182.6l11.8 17.8-11.8 17.8C778 897.1 648.7 956.3 513 956.3zM230.3 773.2C300.9 849.7 406.9 897 513 897c112 0 218.1-47.4 288.6-129.8-70.5-88.2-170.7-135.6-282.7-135.6s-218.1 53.3-288.6 141.6z" /></symbol><symbol viewBox="0 0 1024 1024" id="warning-filled"><path fill="currentColor" d="M512 64a448 448 0 110 896 448 448 0 010-896zm0 192a58.432 58.432 0 00-58.24 63.744l23.36 256.384a35.072 35.072 0 0069.76 0l23.296-256.384A58.432 58.432 0 00512 256zm0 512a51.2 51.2 0 100-102.4 51.2 51.2 0 000 102.4z" /></symbol></defs></svg>