<svg t="1679758161163" fill="currentColor" class="icon" viewBox="0 0 1024 1024" version="1.1" xmlns="http://www.w3.org/2000/svg" p-id="3457" width="200" height="200"><path d="M620.48 933.376l86.144-202.752 206.208 193.344L960 873.6l-206.272-193.344 196.864-99.072L436.16 424.256 620.48 933.376zM485.824 224.256c0 24.832-20.032 44.928-44.8 44.928l0 0c-24.832 0-44.928-20.096-44.928-44.928L396.096 108.864C396.032 84.032 416.128 64 441.024 64l0 0c24.768 0 44.8 20.032 44.8 44.864L485.824 224.256zM310.464 261.312c17.536 17.472 17.536 45.888 0 63.424l0 0c-17.472 17.472-45.952 17.472-63.424 0L165.44 243.136c-17.472-17.472-17.472-45.888 0-63.36l0 0c17.536-17.536 45.952-17.536 63.424 0L310.464 261.312zM555.264 244.352c-17.472 17.536-17.472 45.952 0 63.488l0 0c17.472 17.472 45.952 17.472 63.488 0l81.472-81.6c17.536-17.472 17.536-45.952 0-63.424l0 0c-17.472-17.536-45.888-17.536-63.36 0L555.264 244.352zM224.256 400.768c24.768 0 44.864 20.032 44.864 44.864l0 0c0 24.768-20.032 44.864-44.864 44.864L108.864 490.432C84.032 490.432 64 470.4 64 445.568l0 0c0-24.768 20.032-44.8 44.864-44.8L224.256 400.768 224.256 400.768zM278.208 556.8C295.68 539.328 324.096 539.328 341.632 556.928l0 0c17.536 17.408 17.536 45.888 0.064 63.36l-81.6 81.536c-17.472 17.536-45.952 17.536-63.424 0l0 0c-17.536-17.536-17.536-45.952 0-63.424L278.208 556.8z" p-id="3458"></path></svg>