<svg fill="currentColor" t="1678011831764" class="icon" viewBox="0 0 1024 1024" version="1.1" xmlns="http://www.w3.org/2000/svg" p-id="4675" width="200" height="200"><path d="M999.273 882.852c-8.948 0-17.288-5.227-21.111-13.674-8.644-18.795-43.52-67.034-90.268-112.267-35.532-34.381-128.937-116.966-444.555-116.966-52.266 0-57.567-0.365-57.567-0.365v168.879c0 9.35-5.626 17.897-14.372 21.514-8.649 3.617-27.749 1.61-34.38-5.027L6.858 502.051C2.534 497.728 0.02 491.797 0.02 485.661c0-6.13 2.415-12.06 6.837-16.385L337.02 134.72c6.631-6.637 23.723-8.649 32.366-5.026 8.645 3.617 14.378 12.06 14.378 21.509v168.813s38.073-0.275 67.128-0.275c95.8 0 234.832 18.042 352.655 86.502 66.545 38.706 118.822 90.677 155.313 154.314 42.322 73.784 63.738 194.419 63.738 299.072 0 10.955-7.644 20.404-18.398 22.718-1.61 0.402-3.317 0.504-4.927 0.504z" p-id="4676"></path></svg>