<svg t="1678980719934" class="icon" viewBox="0 0 1024 1024" version="1.1" xmlns="http://www.w3.org/2000/svg" p-id="2071" width="200" height="200"><path d="M204.8 236.8A19.2 19.2 0 0 0 185.6 256v614.4c0 10.5984 8.6016 19.2 19.2 19.2h614.4a19.2 19.2 0 0 0 19.2-19.2V256A19.2 19.2 0 0 0 819.2 236.8H204.8z m0-64h614.4c45.9264 0 83.2 37.2736 83.2 83.2v614.4c0 45.9264-37.2736 83.2-83.2 83.2H204.8A83.2 83.2 0 0 1 121.6 870.4V256c0-45.9264 37.2736-83.2 83.2-83.2z" fill="currentColor" p-id="2072"></path><path d="M339.2 204.8a32 32 0 1 1-64 0V102.4a32 32 0 1 1 64 0v102.4zM748.8 204.8a32 32 0 1 1-64 0V102.4a32 32 0 1 1 64 0v102.4zM358.4 416a32 32 0 1 1 0-64h307.2a32 32 0 1 1 0 64H358.4zM358.4 595.2a32 32 0 1 1 0-64h307.2a32 32 0 1 1 0 64H358.4zM358.4 774.4a32 32 0 1 1 0-64h307.2a32 32 0 1 1 0 64H358.4z" fill="currentColor" p-id="2073"></path></svg>