<svg fill="currentColor" t="1677987770243" class="icon" viewBox="0 0 1024 1024" version="1.1" xmlns="http://www.w3.org/2000/svg" p-id="16605" width="200" height="200"><path d="M194.63168 636.34432l-43.9296 43.9296c-26.5728 26.53184-48.30208 79.0016-48.2304 116.46976L102.4 921.6h124.8256c37.49888 0 89.96864-21.72928 116.50048-48.26112l43.97056-43.93984-193.06496-193.05472zM882.47296 334.6432l15.0016-15.0016C910.72512 306.37056 921.6 280.13568 921.6 261.36576V204.8L819.2 102.4h-56.53504c-18.7392 0-44.97408 10.87488-58.2656 24.13568l-15.0016 15.0016L882.47296 334.6432zM230.81984 600.13568L568.7296 262.23616l193.06496 193.06496-337.88928 337.89952z" p-id="16606"></path><path d="M266.99776 419.10272a34.18112 34.18112 0 0 0 0 48.27136l12.07296 12.07296 289.62816-289.6384L798.0032 419.10272l48.27136-48.26112L629.07392 153.6c-26.5728-26.53184-70.00064-26.53184-96.57344 0L266.99776 419.10272z" p-id="16607"></path></svg>