<svg t="1677766411561" class="icon" viewBox="0 0 1024 1024" version="1.1" xmlns="http://www.w3.org/2000/svg" p-id="16486" width="200" height="200"><path d="M402.432 356.3008m-286.5152 0a286.5152 286.5152 0 1 0 573.0304 0 286.5152 286.5152 0 1 0-573.0304 0Z" fill="#9FDFFF" p-id="16487"></path><path d="M731.648 546.9184m-253.0816 0a253.0816 253.0816 0 1 0 506.1632 0 253.0816 253.0816 0 1 0-506.1632 0Z" fill="#78CCFF" p-id="16488"></path><path d="M268.4416 570.8288m-229.2224 0a229.2224 229.2224 0 1 0 458.4448 0 229.2224 229.2224 0 1 0-458.4448 0Z" fill="#78CCFF" p-id="16489"></path><path d="M266.0864 570.8288h463.2064v229.2224H266.0864z" fill="#78CCFF" p-id="16490"></path><path d="M324.096 831.232h17.6128l82.7392 118.9888h0.6144v-118.9888h16.7936v146.2272h-17.2032L341.504 857.2416h-0.6144v120.2176H324.096v-146.2272zM536.8832 809.5232h14.5408l-72.4992 188.416h-14.7456l72.704-188.416zM616.5504 831.232h19.456l57.5488 146.2272h-18.2272l-15.5648-40.96h-67.1744l-15.5648 40.96h-18.0224l57.5488-146.2272z m-18.6368 91.136h56.5248l-27.648-73.1136h-0.8192l-28.0576 73.1136z" fill="#78CCFF" p-id="16491"></path></svg>