<svg t="1677934172545" class="icon" viewBox="0 0 1070 1024" version="1.1" xmlns="http://www.w3.org/2000/svg" p-id="28778" width="200" height="200"><path d="M936.985859 26.246465H133.818182C59.991919 26.246465 0 86.238384 0 160.064646v535.919192c0 73.826263 59.991919 133.818182 133.818182 133.818182h262.723232L535.272727 999.305051l138.343435-169.503031h262.981818c73.826263 0 133.818182-59.991919 133.818182-133.818182V160.064646c0.387879-73.826263-59.60404-133.818182-133.430303-133.818181zM245.010101 495.838384c-35.684848 0-64.646465-28.961616-64.646465-64.646465s28.961616-64.646465 64.646465-64.646464 64.646465 28.961616 64.646465 64.646464-28.961616 64.646465-64.646465 64.646465z m290.909091 0c-35.684848 0-64.646465-28.961616-64.646465-64.646465s28.961616-64.646465 64.646465-64.646464 64.646465 28.961616 64.646465 64.646464-28.961616 64.646465-64.646465 64.646465z m290.909091 0c-35.684848 0-64.646465-28.961616-64.646465-64.646465s28.961616-64.646465 64.646465-64.646464 64.646465 28.961616 64.646464 64.646464-28.961616 64.646465-64.646464 64.646465z m0 0" fill="currentColor" p-id="28779"></path></svg>