<svg t="1679650484750" fill="currentColor" class="icon" viewBox="0 0 1024 1024" version="1.1" xmlns="http://www.w3.org/2000/svg" p-id="10447" width="200" height="200"><path d="M63.65 512c2.04-148.61 27.84-271.66 103.31-345.05C240.34 91.49 363.39 65.68 512 63.65c148.61 2.04 271.66 27.84 345.05 103.31 75.46 73.38 101.27 196.43 103.3 345.04-2.04 148.61-27.85 271.66-103.31 345.05-73.38 75.46-196.43 101.27-345.04 103.3-148.61-2.04-271.66-27.84-345.05-103.31C91.49 783.66 65.68 660.61 63.65 512z" p-id="10448"></path><path d="M359.21 615.78l68.44-68.44c3.16-3.16 4.37-7.78 3.13-12.06-2.15-7.4-3.34-15.19-3.34-23.28 0-46.63 37.94-84.56 84.56-84.56 8.08 0 15.88 1.19 23.28 3.34 4.28 1.25 8.91 0.03 12.06-3.13l58.63-58.63c5.92-5.92 4.31-15.88-3.15-19.68-27.99-14.26-58.66-23.38-90.82-23.38-130.41 0-236.77 149.57-236.77 186.04 0 17.81 25.42 62.62 66.61 103.79 4.78 4.8 12.57 4.79 17.37-0.01zM664.78 408.22l-68.44 68.44c-3.16 3.16-4.37 7.78-3.13 12.06 2.15 7.4 3.34 15.2 3.34 23.28 0 46.63-37.93 84.56-84.56 84.56-8.08 0-15.88-1.19-23.28-3.34-4.29-1.25-8.91-0.03-12.06 3.13l-58.63 58.63c-5.92 5.92-4.31 15.88 3.16 19.68 27.99 14.26 58.66 23.38 90.81 23.38 130.41 0 236.78-149.57 236.78-186.04 0-17.82-25.42-62.62-66.6-103.8-4.8-4.79-12.59-4.78-17.39 0.02z" fill="#FFFFFF" p-id="10449"></path></svg>