<svg t="1679412479015" fill="currentColor" class="icon" viewBox="0 0 1024 1024" version="1.1" xmlns="http://www.w3.org/2000/svg" p-id="4106" width="200" height="200"><path d="M234.666667 298.666667C199.253333 298.666667 170.666667 270.08 170.666667 234.666667 170.666667 199.253333 199.253333 170.666667 234.666667 170.666667 270.08 170.666667 298.666667 199.253333 298.666667 234.666667 298.666667 270.08 270.08 298.666667 234.666667 298.666667M913.493333 494.08 529.493333 110.08C514.133333 94.72 492.8 85.333333 469.333333 85.333333L170.666667 85.333333C123.306667 85.333333 85.333333 123.306667 85.333333 170.666667L85.333333 469.333333C85.333333 492.8 94.72 514.133333 110.506667 529.493333L494.08 913.493333C509.866667 928.853333 531.2 938.666667 554.666667 938.666667 578.133333 938.666667 599.466667 928.853333 614.826667 913.493333L913.493333 614.826667C929.28 599.466667 938.666667 578.133333 938.666667 554.666667 938.666667 530.773333 928.853333 509.44 913.493333 494.08Z" p-id="4107"></path></svg>