<svg t="1677766480501" class="icon" viewBox="0 0 1024 1024" version="1.1" xmlns="http://www.w3.org/2000/svg" p-id="17156" width="200" height="200"><path d="M672.768 282.5216c-27.648-75.9808-23.0912-155.8016 6.656-224.5632-17.3568 3.0208-34.7136 7.6288-51.9168 13.8752C469.8112 129.2288 388.5056 303.616 445.9008 461.312s231.7824 239.0016 389.4784 181.6064c81.7152-29.7472 142.9504-90.9312 174.9504-164.9152-142.336 24.9344-286.4128-54.9376-337.5616-195.4816z" fill="#FFB612" p-id="17157"></path><path d="M360.5504 548.1984m-280.1152 0a280.1152 280.1152 0 1 0 560.2304 0 280.1152 280.1152 0 1 0-560.2304 0Z" fill="#9FDFFF" p-id="17158"></path><path d="M682.3936 734.5664m-247.3984 0a247.3984 247.3984 0 1 0 494.7968 0 247.3984 247.3984 0 1 0-494.7968 0Z" fill="#78CCFF" p-id="17159"></path><path d="M229.5808 757.9136m-224.1024 0a224.1024 224.1024 0 1 0 448.2048 0 224.1024 224.1024 0 1 0-448.2048 0Z" fill="#78CCFF" p-id="17160"></path><path d="M227.2768 757.9136h452.8128v224.1024H227.2768z" fill="#78CCFF" p-id="17161"></path></svg>