<svg t="1677766453457" class="icon" viewBox="0 0 1024 1024" version="1.1" xmlns="http://www.w3.org/2000/svg" p-id="16822" width="200" height="200"><path d="M402.432 307.968m-286.5152 0a286.5152 286.5152 0 1 0 573.0304 0 286.5152 286.5152 0 1 0-573.0304 0Z" fill="#9FDFFF" p-id="16823"></path><path d="M731.648 498.5856m-253.0816 0a253.0816 253.0816 0 1 0 506.1632 0 253.0816 253.0816 0 1 0-506.1632 0Z" fill="#78CCFF" p-id="16824"></path><path d="M268.4416 522.4448m-229.2224 0a229.2224 229.2224 0 1 0 458.4448 0 229.2224 229.2224 0 1 0-458.4448 0Z" fill="#78CCFF" p-id="16825"></path><path d="M266.0864 522.4448h463.2064v229.2224H266.0864z" fill="#78CCFF" p-id="16826"></path><path d="M543.6416 260.864l-187.9552 293.888 189.7472 27.648L450.56 803.84l281.088-289.8944-213.8624-32.3584z" fill="#FFB612" p-id="16827"></path><path d="M297.6256 904.9088c0 37.8368-27.2896 68.4544-60.928 68.4544s-60.928-30.6688-60.928-68.4544c0-37.8368 60.928-112.7424 60.928-112.7424s60.928 74.9056 60.928 112.7424zM664.6784 904.9088c0 37.8368-27.2896 68.4544-60.928 68.4544s-60.928-30.6688-60.928-68.4544c0-37.8368 60.928-112.7424 60.928-112.7424s60.928 74.9056 60.928 112.7424z" fill="#78CCFF" p-id="16828"></path><path d="M481.1264 904.9088c0 37.8368-27.2896 68.4544-60.928 68.4544s-60.928-30.6688-60.928-68.4544c0-37.8368 60.928-112.7424 60.928-112.7424s60.928 74.9056 60.928 112.7424zM848.2304 904.9088c0 37.8368-27.2896 68.4544-60.928 68.4544s-60.928-30.6688-60.928-68.4544c0-37.8368 60.928-112.7424 60.928-112.7424s60.928 74.9056 60.928 112.7424z" fill="#9FDFFF" p-id="16829"></path></svg>